<svg xmlns="http://www.w3.org/2000/svg" version="1.1" xmlns:xlink="http://www.w3.org/1999/xlink" xmlns:svgjs="http://svgjs.dev/svgjs" width="1000" height="1000" viewBox="0 0 1000 1000"><rect width="1000" height="1000" fill="#000000"></rect><g transform="matrix(0.7,0,0,0.7,149.57575757575756,419.73946987731216)"><svg viewBox="0 0 396 91" data-background-color="#ffffff" preserveAspectRatio="xMidYMid meet" height="229" width="1000" xmlns="http://www.w3.org/2000/svg" xmlns:xlink="http://www.w3.org/1999/xlink"><g id="tight-bounds" transform="matrix(1,0,0,1,0.2400000000000091,0.06274635785774763)"><svg viewBox="0 0 395.52 90.8745072842845" height="90.8745072842845" width="395.52"><g><svg viewBox="0 0 555.4199689266436 127.61305626026838" height="90.8745072842845" width="395.52"><g><rect width="5.279909819722229" height="127.61305626026838" x="140.79830565215116" y="0" fill="#ffffff" opacity="1" stroke-width="0" stroke="transparent" fill-opacity="1" class="rect-o-0" data-fill-palette-color="primary" rx="1%" id="o-0" data-palette-color="#113f67"></rect></g><g transform="matrix(1,0,0,1,159.89996892664362,0.31744541358275313)"><svg viewBox="0 0 395.52 126.97816543310287" height="126.97816543310287" width="395.52"><g id="textblocktransform"><svg viewBox="0 0 395.52 126.97816543310287" height="126.97816543310287" width="395.52" id="textblock"><g><svg viewBox="0 0 395.52 126.97816543310287" height="126.97816543310287" width="395.52"><g transform="matrix(1,0,0,1,0,0)"><svg width="395.52" viewBox="5.250000953674316 -35.0099983215332 240.75 74.05001068115234" height="126.97816543310287" data-palette-color="#113f67"><svg></svg><svg></svg><g class="undefined-text-0" data-fill-palette-color="primary" id="text-0"><path xmlns="http://www.w3.org/2000/svg" d="M20.04-35.01v0c2.673 0 5.547 0.463 8.62 1.39v0l-1.34 3.79c-2.933-0.847-5.473-1.27-7.62-1.27v0c-2.407 0-4.443 0.507-6.11 1.52-1.673 1.02-2.51 2.337-2.51 3.95v0c0 0.893 0.27 1.69 0.81 2.39 0.54 0.7 1.247 1.27 2.12 1.71 0.88 0.44 1.883 0.873 3.01 1.3 1.12 0.433 2.263 0.83 3.43 1.19 1.16 0.353 2.303 0.807 3.43 1.36 1.12 0.553 2.12 1.16 3 1.82 0.88 0.66 1.587 1.52 2.12 2.58 0.54 1.06 0.81 2.257 0.81 3.59v0c0 0.927-0.147 1.85-0.44 2.77-0.293 0.92-0.78 1.83-1.46 2.73-0.687 0.907-1.533 1.7-2.54 2.38-1.013 0.687-2.287 1.24-3.82 1.66-1.54 0.427-3.253 0.64-5.14 0.64-1.893 0-3.633-0.197-5.22-0.59-1.587-0.387-3.363-0.973-5.33-1.76v0l1.42-4.02c4.067 1.513 7.28 2.27 9.64 2.27v0c2.473 0 4.487-0.497 6.04-1.49 1.553-0.993 2.33-2.32 2.33-3.98v0c0-1.107-0.343-2.063-1.03-2.87-0.693-0.807-1.59-1.457-2.69-1.95-1.1-0.5-2.317-0.967-3.65-1.4-1.333-0.427-2.663-0.89-3.99-1.39-1.327-0.493-2.54-1.067-3.64-1.72-1.1-0.647-1.997-1.523-2.69-2.63-0.687-1.113-1.03-2.417-1.03-3.91v0c0-1.333 0.32-2.61 0.96-3.83 0.647-1.227 1.54-2.297 2.68-3.21 1.133-0.92 2.557-1.653 4.27-2.2 1.707-0.547 3.56-0.82 5.56-0.82zM36.4 0l12.33-34.69h4.71l12.33 34.69h-4.2l-3.51-10.08h-14.31l-3.52 10.08zM56.79-13.72l-5.89-16.92-5.9 16.92zM74.07 0v-34.69h5.86l11.13 21.04 11.31-21.04h5.49v34.69h-4.15v-28.74l-10.67 18.8h-4.15l-10.67-18.8v28.74zM116.16 0l12.33-34.69h4.71l12.33 34.69h-4.2l-3.51-10.08h-14.31l-3.51 10.08zM136.55-13.72l-5.89-16.92-5.9 16.92zM153.83 0v-34.69h5.25l18.9 29.03v-29.03h4.15v34.69h-5.25l-18.9-29.08v29.08zM214.67 0h-20.33v-34.69h20.33v3.66h-16.18v11.33h14.84v3.66h-14.84v12.38h16.18zM246 0h-20.34v-34.69h20.34v3.66h-16.19v11.33h14.84v3.66h-14.84v12.38h16.19z" fill="#ffffff" fill-rule="nonzero" stroke="none" stroke-width="1" stroke-linecap="butt" stroke-linejoin="miter" stroke-miterlimit="10" stroke-dasharray="" stroke-dashoffset="0" font-family="none" font-weight="none" font-size="none" text-anchor="none" style="mix-blend-mode: normal" data-fill-palette-color="primary" opacity="1"></path><path xmlns="http://www.w3.org/2000/svg" d="M22.44 3.59v0c3.907 0 7.623 0.983 11.15 2.95v0l-1.63 3.1c-1.24-0.647-2.68-1.207-4.32-1.68-1.647-0.473-3.307-0.71-4.98-0.71v0c-1.713 0-3.363 0.317-4.95 0.95-1.587 0.64-2.997 1.533-4.23 2.68-1.24 1.147-2.23 2.593-2.97 4.34-0.74 1.753-1.11 3.67-1.11 5.75v0c0 2.753 0.61 5.227 1.83 7.42 1.22 2.2 2.903 3.91 5.05 5.13 2.153 1.22 4.557 1.83 7.21 1.83v0c3.14 0 5.693-0.943 7.66-2.83v0-8.86h-9.86v-3.42h13.89v13.62c-0.44 0.507-0.95 0.997-1.53 1.47-0.573 0.473-1.377 1.017-2.41 1.63-1.033 0.62-2.307 1.12-3.82 1.5-1.513 0.387-3.15 0.58-4.91 0.58v0c-2.313 0-4.44-0.347-6.38-1.04-1.947-0.693-3.58-1.617-4.9-2.77-1.32-1.153-2.433-2.5-3.34-4.04-0.913-1.54-1.583-3.147-2.01-4.82-0.42-1.68-0.63-3.39-0.63-5.13v0c0-1.82 0.23-3.59 0.69-5.31 0.467-1.72 1.18-3.327 2.14-4.82 0.96-1.5 2.113-2.807 3.46-3.92 1.34-1.113 2.947-1.993 4.82-2.64 1.873-0.64 3.9-0.96 6.08-0.96zM45.92 38.55v-34.69h4.15v31.05h15.58v3.64zM88.09 3.49v0c2.293 0 4.437 0.403 6.43 1.21 1.993 0.807 3.717 1.943 5.17 3.41 1.46 1.46 2.607 3.287 3.44 5.48 0.827 2.187 1.24 4.59 1.24 7.21v0c0 3.547-0.703 6.7-2.11 9.46-1.407 2.76-3.36 4.893-5.86 6.4-2.5 1.507-5.327 2.26-8.48 2.26v0c-2.087 0-4.083-0.37-5.99-1.11-1.9-0.747-3.617-1.827-5.15-3.24-1.527-1.413-2.747-3.263-3.66-5.55-0.913-2.287-1.37-4.863-1.37-7.73v0c0-2.687 0.417-5.143 1.25-7.37 0.827-2.233 1.967-4.11 3.42-5.63 1.447-1.52 3.17-2.7 5.17-3.54 2-0.84 4.167-1.26 6.5-1.26zM87.87 7.13v0c-1.487 0-2.913 0.277-4.28 0.83-1.367 0.553-2.623 1.363-3.77 2.43-1.147 1.067-2.067 2.5-2.76 4.3-0.687 1.793-1.03 3.823-1.03 6.09v0c0 2.16 0.317 4.157 0.95 5.99 0.633 1.833 1.497 3.367 2.59 4.6 1.087 1.24 2.377 2.2 3.87 2.88 1.487 0.687 3.083 1.03 4.79 1.03v0c1.16 0 2.297-0.17 3.41-0.51 1.113-0.347 2.183-0.89 3.21-1.63 1.027-0.74 1.927-1.647 2.7-2.72 0.773-1.073 1.39-2.4 1.85-3.98 0.467-1.58 0.7-3.313 0.7-5.2v0c0-1.92-0.243-3.677-0.73-5.27-0.493-1.6-1.143-2.937-1.95-4.01-0.8-1.073-1.733-1.98-2.8-2.72-1.067-0.74-2.167-1.277-3.3-1.61-1.133-0.333-2.283-0.5-3.45-0.5zM125.59 7.03h-6.69v11.65c0.307-0.02 0.843-0.033 1.61-0.04 0.767-0.007 1.36-0.013 1.78-0.02 0.42-0.013 1.013-0.047 1.78-0.1 0.767-0.06 1.383-0.127 1.85-0.2 0.46-0.073 1.02-0.187 1.68-0.34 0.66-0.153 1.197-0.333 1.61-0.54 0.413-0.2 0.853-0.46 1.32-0.78 0.467-0.313 0.83-0.667 1.09-1.06 0.26-0.393 0.473-0.86 0.64-1.4 0.173-0.547 0.26-1.147 0.26-1.8v0c0-0.487-0.05-0.95-0.15-1.39-0.093-0.44-0.297-0.913-0.61-1.42-0.307-0.5-0.703-0.93-1.19-1.29-0.493-0.36-1.167-0.66-2.02-0.9-0.853-0.247-1.84-0.37-2.96-0.37zM118.9 21.9v0 12.99h6.47c0.587 0 1.077-0.003 1.47-0.01 0.4-0.013 0.973-0.063 1.72-0.15 0.753-0.093 1.393-0.217 1.92-0.37 0.527-0.153 1.117-0.39 1.77-0.71 0.653-0.313 1.18-0.69 1.58-1.13 0.393-0.44 0.73-1.007 1.01-1.7 0.273-0.687 0.41-1.47 0.41-2.35v0c0-2.167-0.837-3.86-2.51-5.08-1.68-1.22-3.933-1.83-6.76-1.83v0c-0.313 0-2.673 0.113-7.08 0.34zM114.75 38.55v-34.69h12.23c1.187 0 2.273 0.127 3.26 0.38 0.98 0.247 1.793 0.567 2.44 0.96 0.64 0.393 1.21 0.857 1.71 1.39 0.493 0.54 0.87 1.06 1.13 1.56 0.26 0.507 0.473 1.047 0.64 1.62 0.16 0.567 0.26 1.033 0.3 1.4 0.04 0.367 0.06 0.713 0.06 1.04v0c0 1.413-0.48 2.823-1.44 4.23-0.96 1.407-1.977 2.317-3.05 2.73v0c2.147 0.387 3.91 1.423 5.29 3.11 1.373 1.68 2.06 3.597 2.06 5.75v0c0 0.5-0.043 1.027-0.13 1.58-0.093 0.553-0.27 1.18-0.53 1.88-0.26 0.7-0.593 1.37-1 2.01-0.407 0.633-0.96 1.263-1.66 1.89-0.7 0.627-1.503 1.167-2.41 1.62-0.9 0.46-2.007 0.83-3.32 1.11-1.307 0.287-2.74 0.43-4.3 0.43v0zM145.61 38.55l12.32-34.69h4.72l12.33 34.69h-4.2l-3.52-10.08h-14.31l-3.51 10.08zM165.99 24.83l-5.88-16.92-5.91 16.92zM183.28 38.55v-34.69h4.15v31.05h15.57v3.64z" fill="#ffffff" fill-rule="nonzero" stroke="none" stroke-width="1" stroke-linecap="butt" stroke-linejoin="miter" stroke-miterlimit="10" stroke-dasharray="" stroke-dashoffset="0" font-family="none" font-weight="none" font-size="none" text-anchor="none" style="mix-blend-mode: normal" data-fill-palette-color="primary" opacity="1"></path></g></svg></g></svg></g></svg></g></svg></g><g transform="matrix(1,0,0,1,0,0.31744541358275313)"><svg viewBox="0 0 126.97655219738093 126.97816543310287" height="126.97816543310287" width="126.97655219738093"><g><svg xmlns="http://www.w3.org/2000/svg" xmlns:xlink="http://www.w3.org/1999/xlink" version="1.1" x="0" y="0" viewBox="10.666999816894531 10.665999412536621 78.66600036621094 78.66699981689453" enable-background="new 0 0 100 100" xml:space="preserve" height="126.97816543310287" width="126.97655219738093" class="icon-icon-0" data-fill-palette-color="accent" id="icon-0"><path fill="#ffffff" d="M50.024 10.667c-0.008 0-0.016-0.001-0.024-0.001-0.009 0-0.017 0.001-0.024 0.001C28.298 10.681 10.667 28.32 10.667 50c0 21.688 17.645 39.333 39.333 39.333S89.333 71.688 89.333 50C89.333 28.32 71.702 10.681 50.024 10.667zM82.141 46.5H71.248c-0.132-2.885-0.421-5.674-0.86-8.333h9.693C81.118 40.796 81.825 43.589 82.141 46.5zM64.247 46.5H53.5v-8.333h9.79C63.769 40.762 64.101 43.548 64.247 46.5zM53.5 31.167V18.8c3.051 1.937 5.969 6.281 8.007 12.367H53.5zM46.5 18.8v12.367h-8.008C40.531 25.081 43.45 20.736 46.5 18.8zM46.5 38.167V46.5H35.752c0.146-2.952 0.479-5.738 0.956-8.333H46.5zM28.75 46.5H17.859c0.315-2.911 1.022-5.704 2.06-8.333h9.692C29.172 40.826 28.883 43.615 28.75 46.5zM17.859 53.5H28.75c0.127 2.766 0.4 5.441 0.812 8h-9.773C18.821 58.969 18.161 56.288 17.859 53.5zM35.752 53.5H46.5v8h-9.853C36.201 59 35.893 56.325 35.752 53.5zM46.5 68.5v12.699c-3.105-1.971-6.076-6.438-8.119-12.699H46.5zM53.5 81.199V68.5h8.118C59.576 74.761 56.606 79.228 53.5 81.199zM53.5 61.5v-8h10.747c-0.141 2.825-0.449 5.5-0.895 8H53.5zM71.248 53.5h10.893c-0.302 2.788-0.962 5.469-1.929 8h-9.773C70.848 58.941 71.121 56.266 71.248 53.5zM76.257 31.167h-7.444c-1.085-3.745-2.492-7.103-4.153-9.971C69.275 23.555 73.251 26.988 76.257 31.167zM35.34 21.196c-1.661 2.868-3.067 6.226-4.153 9.971h-7.443C26.749 26.988 30.724 23.555 35.34 21.196zM23.506 68.5h7.59c1.098 3.877 2.535 7.352 4.244 10.304C30.603 76.383 26.538 72.83 23.506 68.5zM64.659 78.805c1.709-2.952 3.146-6.428 4.244-10.305h7.591C73.461 72.83 69.397 76.383 64.659 78.805z" data-fill-palette-color="accent"></path></svg></g></svg></g></svg></g><defs></defs></svg><rect width="395.52" height="90.8745072842845" fill="none" stroke="none" visibility="hidden"></rect></g></svg></g></svg>